<svg width="34" height="34" viewBox="0 0 34 34" fill="none" xmlns="http://www.w3.org/2000/svg">
<path d="M23.8763 0.956648C28.931 0.956648 33.0437 5.06932 33.0437 10.1241V23.8758C33.0437 28.9305 28.931 33.0432 23.8763 33.0432H10.1246C5.06981 33.0432 0.957136 28.9305 0.957136 23.8758V10.1241C0.957136 5.06932 5.06981 0.956648 10.1246 0.956648H23.8763ZM23.8763 0.210449H10.1246C4.64933 0.210449 0.210938 4.64884 0.210938 10.1241V23.8758C0.210938 29.351 4.64933 33.7894 10.1246 33.7894H23.8763C29.3515 33.7894 33.7899 29.351 33.7899 23.8758V10.1241C33.7899 4.64884 29.3515 0.210449 23.8763 0.210449Z" fill="white"/>
<path d="M17.0021 9.7401C21.005 9.7401 24.2618 12.9969 24.2618 16.9999C24.2618 21.0028 21.005 24.2596 17.0021 24.2596C12.9991 24.2596 9.74229 21.0028 9.74229 16.9999C9.74229 12.9969 12.9991 9.7401 17.0021 9.7401ZM17.0021 8.9939C12.5805 8.9939 8.99609 12.5783 8.99609 16.9999C8.99609 21.4215 12.5805 25.0058 17.0021 25.0058C21.4237 25.0058 25.008 21.4215 25.008 16.9999C25.008 12.5783 21.4237 8.9939 17.0021 8.9939Z" fill="white"/>
<path d="M25.9699 9.78644C26.9348 9.78644 27.7171 9.00418 27.7171 8.03922C27.7171 7.07425 26.9348 6.29199 25.9699 6.29199C25.0049 6.29199 24.2227 7.07425 24.2227 8.03922C24.2227 9.00418 25.0049 9.78644 25.9699 9.78644Z" fill="white"/>
<path d="M25.9738 7.03673C26.5256 7.03673 26.9748 7.48557 26.9748 8.03775C26.9748 8.58994 26.526 9.03878 25.9738 9.03878C25.4216 9.03878 24.9728 8.58994 24.9728 8.03775C24.9728 7.48557 25.422 7.03673 25.9738 7.03673ZM25.9738 6.29053C25.0089 6.29053 24.2266 7.07292 24.2266 8.03775C24.2266 9.00259 25.0089 9.78498 25.9738 9.78498C26.9386 9.78498 27.721 9.00259 27.721 8.03775C27.721 7.07292 26.939 6.29053 25.9738 6.29053Z" fill="white"/>
</svg>
