<svg width="37" height="25" viewBox="0 0 37 25" fill="none" xmlns="http://www.w3.org/2000/svg">
<path d="M35.8 22.4815V2.71852C35.8 2.26274 35.612 1.82563 35.2773 1.50334C34.9426 1.18106 34.4887 1 34.0154 1H2.78462C2.31131 1 1.85738 1.18106 1.5227 1.50334C1.18802 1.82563 1 2.26274 1 2.71852V22.4815C1 22.9373 1.18802 23.3744 1.5227 23.6967C1.85738 24.0189 2.31131 24.2 2.78462 24.2H34.0154C34.4887 24.2 34.9426 24.0189 35.2773 23.6967C35.612 23.3744 35.8 22.9373 35.8 22.4815Z" stroke="white" stroke-width="0.5" stroke-linecap="round" stroke-linejoin="round"/>
<path d="M35.8 3.90063L18.4 12.6006L1 3.90063" stroke="white" stroke-width="0.5" stroke-linecap="round" stroke-linejoin="round"/>
</svg>
