<svg width="37" height="32" viewBox="0 0 37 32" fill="none" xmlns="http://www.w3.org/2000/svg">
<path d="M34.6802 0.736816C35.762 0.736816 36.5781 1.72038 36.1416 3.5498L30.8465 29.4174C30.4764 31.2567 29.4041 31.6993 27.9237 30.8436L15.2933 21.1752C15.2443 21.1388 15.2044 21.0908 15.1769 21.0352C15.1493 20.9796 15.135 20.918 15.135 20.8555C15.135 20.7931 15.1493 20.7315 15.1769 20.6759C15.2044 20.6203 15.2443 20.5723 15.2933 20.5359L29.8785 6.88407C30.5428 6.27426 29.7362 5.97919 28.8632 6.52999L10.558 18.4999C10.5025 18.5374 10.4395 18.5614 10.3737 18.5699C10.308 18.5784 10.2412 18.5713 10.1785 18.5491L2.40662 16.0017C0.679546 15.4804 0.679546 14.2509 2.79569 13.3756L33.8926 0.943364C34.1392 0.820735 34.407 0.750506 34.6802 0.736816V0.736816Z" stroke="white" stroke-width="0.5" stroke-linecap="round" stroke-linejoin="round"/>
</svg>
